<?xml version="1.0" encoding="iso-8859-1"?>
<!-- Generator: Adobe Illustrator 19.0.0, SVG Export Plug-In . SVG Version: 6.00 Build 0)  -->
<svg version="1.1" id="Layer_1" xmlns="http://www.w3.org/2000/svg" xmlns:xlink="http://www.w3.org/1999/xlink" x="0px" y="0px"
	 viewBox="0 0 512 512" style="enable-background:new 0 0 512 512;" xml:space="preserve">
<path style="fill:#E7ECED;" d="M256.005,7.931c137.001,0,248.064,111.063,248.064,248.064
	c0,137.012-111.063,248.075-248.064,248.075c-137.012,0-248.075-111.063-248.075-248.075C7.931,118.993,118.993,7.931,256.005,7.931
	z"/>
<path style="fill:#9A14BE;" d="M256.005,55.431c-0.145,0-0.289,0.005-0.434,0.005C144.995,55.671,55.431,145.373,55.431,255.995
	c0,110.632,89.564,200.334,200.141,200.569c0.145,0,0.289,0.005,0.434,0.005c110.766,0,200.564-89.797,200.564-200.574
	C456.569,145.228,366.772,55.431,256.005,55.431z"/>
<path style="fill:#8414BE;" d="M256.005,55.431c-0.145,0-0.289,0.005-0.434,0.005v401.128c0.145,0,0.289,0.005,0.434,0.005
	c110.766,0,200.564-89.797,200.564-200.574C456.569,145.228,366.772,55.431,256.005,55.431z"/>
<g>
	<polygon style="fill:#F1F2F2;" points="340.452,134.601 340.452,176.824 208.495,229.612 208.495,182.101 	"/>
	<path style="fill:#F1F2F2;" d="M308.782,282.388c17.49,0,31.67,9.453,31.67,21.117c0,11.653-14.18,21.106-31.67,21.106
		c-17.49,0-31.67-9.453-31.67-21.106C277.112,291.842,291.292,282.388,308.782,282.388z"/>
	<path style="fill:#F1F2F2;" d="M176.835,324.612c17.49,0,31.66,9.453,31.66,21.117c0,11.653-14.17,21.106-31.66,21.106
		s-31.67-9.453-31.67-21.106C145.165,334.065,159.345,324.612,176.835,324.612z"/>
</g>
<path d="M437.02,74.98C388.67,26.628,324.384,0,256.005,0C187.622,0,123.333,26.628,74.981,74.98C26.628,123.33,0,187.616,0,255.995
	c0,68.383,26.628,132.673,74.981,181.025S187.622,512,256.005,512c68.379,0,132.665-26.628,181.015-74.981
	C485.372,388.667,512,324.378,512,255.995C512,187.616,485.372,123.33,437.02,74.98z M425.805,425.804
	c-45.354,45.356-105.657,70.334-169.8,70.334c-64.147,0-124.453-24.979-169.808-70.335S15.862,320.141,15.862,255.995
	c0-64.142,24.979-124.445,70.334-169.8c45.357-45.354,105.663-70.333,169.809-70.333c64.142,0,124.444,24.979,169.8,70.333
	s70.333,105.658,70.333,169.8C496.138,320.141,471.16,380.448,425.805,425.804z"/>
<path d="M256.005,47.5C141.034,47.5,47.5,141.03,47.5,255.995c0,114.971,93.536,208.505,208.505,208.505
	c114.964,0,208.495-93.535,208.495-208.505C464.5,141.03,370.97,47.5,256.005,47.5z M256.005,448.638
	c-106.225,0-192.644-86.42-192.644-192.644c0-106.218,86.42-192.633,192.644-192.633c106.218,0,192.633,86.415,192.633,192.633
	C448.638,362.218,362.224,448.638,256.005,448.638z"/>
<path d="M200.564,322.327c-6.571-3.559-14.757-5.646-23.729-5.646c-22.206,0-39.601,12.759-39.601,29.048
	c0,16.282,17.395,29.037,39.601,29.037c22.2,0,39.59-12.755,39.59-29.037V234.981l116.096-46.443v91.567
	c-6.573-3.56-14.763-5.648-23.739-5.648c-22.206,0-39.601,12.759-39.601,29.048c0,16.282,17.395,29.037,39.601,29.037
	c22.206,0,39.601-12.755,39.601-29.037V123.317l-147.819,53.209V322.327z M176.835,358.904c-13.99,0-23.739-6.943-23.739-13.176
	c0-6.237,9.75-13.186,23.739-13.186c13.984,0,23.729,6.949,23.729,13.186C200.564,351.961,190.819,358.904,176.835,358.904z
	 M308.782,316.681c-13.99,0-23.739-6.943-23.739-13.176c0-6.237,9.75-13.186,23.739-13.186s23.739,6.949,23.739,13.186
	C332.521,309.738,322.772,316.681,308.782,316.681z M332.521,145.885v25.571l-116.096,46.443v-30.223L332.521,145.885z"/>
<g>
	<path style="fill:#FFFFFF;" d="M105.788,226.65l-15.377-3.889c20.683-81.768,94.114-138.875,178.569-138.875v15.862
		C191.796,99.747,124.689,151.931,105.788,226.65z"/>
	<path style="fill:#FFFFFF;" d="M100.657,268.06H84.796c0-8.125,0.535-16.301,1.589-24.3l15.725,2.074
		C101.146,253.148,100.657,260.626,100.657,268.06z"/>
</g>
<g>
</g>
<g>
</g>
<g>
</g>
<g>
</g>
<g>
</g>
<g>
</g>
<g>
</g>
<g>
</g>
<g>
</g>
<g>
</g>
<g>
</g>
<g>
</g>
<g>
</g>
<g>
</g>
<g>
</g>
</svg>
