<?xml version="1.0" encoding="iso-8859-1"?><!DOCTYPE svg PUBLIC "-//W3C//DTD SVG 1.1//EN" "http://www.w3.org/Graphics/SVG/1.1/DTD/svg11.dtd"><svg xmlns="http://www.w3.org/2000/svg" xmlns:xlink="http://www.w3.org/1999/xlink"><symbol viewBox="0 0 455.731 455.731" id="behance" xmlns="http://www.w3.org/2000/svg"><path fill="#0071b9" d="M0 0h455.731v455.731H0z"/><g fill="#fff"><path d="M280.887 131.1h88.812v22.092h-88.812zM405.047 255.26c0 3.985-.159 7.821-.477 11.488H290.343c-1.06 25.185 17.32 40.173 38.22 40.173 14.811 0 27.828-7.856 35.33-21.173h37.389c-10.26 37.442-40.403 53.022-75.989 53.022-46.615 0-79.754-37.389-79.754-83.509s35.71-83.509 79.754-83.509 79.754 37.388 79.754 83.508zm-114.704-16.392h70.254c-2.792-20.749-17.453-33.978-35.127-33.978-17.674-.001-32.335 13.228-35.127 33.978zM231.842 258.795c2.872 32.034-2.872 51.917-35.569 68.045-12.239 6.036-27.58 7.927-41.976 7.927H50.684V116.962h113.997c14.139 0 57.811 8.395 58.059 50.371.168 29.021-16.26 42.285-29.984 48.639 0-.001 36.214 10.789 39.086 42.823zm-46.668 9.217c0-30.567-34.517-29.772-34.517-29.772H98.625v59.543h52.032c0 .001 34.517.796 34.517-29.771zm-8.563-88.529c0-25.627-28.941-24.964-28.941-24.964H98.625v49.929h49.045s28.941.662 28.941-24.965z"/></g></symbol><symbol viewBox="0 0 512 512" id="construct" xmlns="http://www.w3.org/2000/svg"><path d="M155.869 356.686l-.294-.293c-3.914-3.895-10.245-3.881-14.142.034-3.896 3.915-3.881 10.246.034 14.142l.327.325a9.966 9.966 0 007.037 2.896c2.575 0 5.15-.989 7.105-2.962 3.887-3.924 3.857-10.255-.067-14.142z"/><path d="M370.553 141.449c-63.164-63.164-165.94-63.164-229.104 0-51.708 51.708-62.365 132.03-25.917 195.328 2.756 4.786 8.871 6.431 13.656 3.676 4.786-2.756 6.432-8.87 3.676-13.656-31.945-55.477-22.599-125.879 22.727-171.206 55.366-55.366 145.454-55.366 200.819 0 55.366 55.366 55.366 145.453 0 200.819-45.602 45.602-116.298 54.777-171.919 22.313-4.771-2.785-10.894-1.175-13.678 3.596-2.784 4.77-1.174 10.894 3.596 13.678 25.379 14.813 53.503 22.027 81.451 22.027 41.938 0 83.474-16.253 114.693-47.472 63.163-63.164 63.163-165.939 0-229.103z"/><path d="M511.965 212.062a10 10 0 00-8.435-9.873l-36.913-5.849-19.583-47.227 21.943-30.254a10 10 0 00-1.026-12.944L405.93 43.936a9.999 9.999 0 00-12.946-1.017l-30.225 21.957-47.26-19.555-5.874-36.894A10.001 10.001 0 00299.749 0h-.004l-87.683.036a10.001 10.001 0 00-9.873 8.435l-5.848 36.913-47.227 19.583-30.254-21.943a10 10 0 00-12.944 1.026l-61.979 62.021a10 10 0 00-1.017 12.946l21.957 30.225-19.555 47.26-36.894 5.874A10 10 0 000 212.255l.036 87.682a10 10 0 008.435 9.873l36.913 5.849 19.583 47.227-21.943 30.254a10 10 0 001.026 12.944l62.021 61.979a10 10 0 0012.946 1.017l30.225-21.957 47.26 19.555 5.874 36.894a10 10 0 009.875 8.428h.004l87.682-.037a10.001 10.001 0 009.873-8.435l5.849-36.913 47.227-19.583 30.254 21.943a9.998 9.998 0 0012.944-1.026l61.979-62.021a10 10 0 001.017-12.946l-21.957-30.225 19.555-47.26 36.894-5.874a10 10 0 008.428-9.879l-.035-87.682zm-53.958 84.564a9.999 9.999 0 00-7.668 6.052l-23.835 57.604a10 10 0 001.15 9.701l20.229 27.846-49.91 49.944-27.875-20.217a10.005 10.005 0 00-9.702-1.143l-57.568 23.872a9.999 9.999 0 00-6.046 7.672l-5.389 34.009-70.607.03-5.412-33.99a9.999 9.999 0 00-6.052-7.668l-57.604-23.835a9.995 9.995 0 00-9.7 1.15l-27.846 20.229-49.944-49.91 20.217-27.875a10 10 0 001.142-9.702l-23.871-57.568a9.999 9.999 0 00-7.672-6.046l-34.01-5.389-.029-70.607 33.99-5.412a9.999 9.999 0 007.668-6.052l23.835-57.604a10 10 0 00-1.15-9.701L64.119 114.17l49.91-49.944 27.875 20.217a9.998 9.998 0 009.702 1.143l57.568-23.872a10 10 0 006.046-7.672l5.388-34.01 70.608-.029 5.412 33.99a9.999 9.999 0 006.052 7.668l57.604 23.835a10.005 10.005 0 009.701-1.15l27.846-20.229 49.944 49.91-20.217 27.875a10 10 0 00-1.142 9.702l23.871 57.568a9.999 9.999 0 007.672 6.046l34.01 5.389.029 70.607-33.991 5.412z"/><path d="M347.102 268.458c-12.507-11.363-29.315-16.298-45.907-13.716l-43.917-43.917c2.671-17.396-3.066-35.298-15.641-47.874a55.603 55.603 0 00-60.052-12.304 9.998 9.998 0 00-3.355 16.355l14.5 14.5c3.069 3.069 3.069 8.063 0 11.133-3.069 3.07-8.063 3.07-11.133 0l-14.55-14.551a9.997 9.997 0 00-16.34 3.318c-8.719 21.532-3.014 46.503 14.195 62.138 12.52 11.377 29.341 16.311 45.951 13.711l43.877 43.878c-2.688 17.41 3.046 35.329 15.635 47.919a55.549 55.549 0 0039.323 16.31 55.728 55.728 0 0020.891-4.071 10 10 0 003.326-16.343l-14.434-14.435c-3.069-3.069-3.069-8.063 0-11.133 3.069-3.07 8.063-3.07 11.133 0l14.405 14.405a9.998 9.998 0 0016.352-3.347c8.622-21.488 2.892-46.394-14.259-61.976zm-2.357 36.777c-10.868-10.867-28.551-10.868-39.418 0s-10.867 28.55 0 39.417l.488.489a35.589 35.589 0 01-21.309-10.235c-8.971-8.971-12.508-22.172-9.229-34.452a9.998 9.998 0 00-2.59-9.65l-51.512-51.512a10 10 0 00-9.635-2.595c-11.843 3.145-24.251.167-33.192-7.957-6.567-5.969-10.522-14.057-11.469-22.537l.575.575c10.868 10.867 28.55 10.868 39.418 0 10.867-10.868 10.867-28.55 0-39.417l-.473-.473a35.589 35.589 0 0121.095 10.207c8.961 8.961 12.5 22.15 9.237 34.42a10 10 0 002.593 9.642l51.542 51.542a10 10 0 009.626 2.597c11.831-3.126 24.228-.148 33.16 7.966 6.507 5.912 10.451 13.917 11.441 22.321l-.348-.348zM347.343 184.589c-16.481-21.053-39.845-35.862-65.79-41.7-5.386-1.213-10.739 2.172-11.951 7.561-1.212 5.389 2.172 10.739 7.561 11.951 21.457 4.828 40.788 17.086 54.432 34.517a9.982 9.982 0 007.881 3.836 9.956 9.956 0 006.157-2.126c4.349-3.404 5.115-9.69 1.71-14.039zM366.448 220.649l-.146-.452c-1.697-5.256-7.332-8.138-12.589-6.443-5.256 1.697-8.141 7.333-6.443 12.589l.127.392c1.357 4.249 5.29 6.96 9.523 6.96a9.996 9.996 0 003.045-.477c5.261-1.681 8.164-7.308 6.483-12.569z"/></symbol><symbol viewBox="0 0 504 504" id="mastercard" xmlns="http://www.w3.org/2000/svg"><path d="M504 252c0 83.2-67.2 151.2-151.2 151.2-83.2 0-151.2-68-151.2-151.2 0-83.2 67.2-151.2 150.4-151.2 84.8 0 152 68 152 151.2z" fill="#ffb600"/><path d="M352.8 100.8c83.2 0 151.2 68 151.2 151.2 0 83.2-67.2 151.2-151.2 151.2-83.2 0-151.2-68-151.2-151.2" fill="#f7981d"/><path d="M352.8 100.8c83.2 0 151.2 68 151.2 151.2 0 83.2-67.2 151.2-151.2 151.2" fill="#ff8500"/><path d="M149.6 100.8C67.2 101.6 0 168.8 0 252s67.2 151.2 151.2 151.2c39.2 0 74.4-15.2 101.6-39.2 5.6-4.8 10.4-10.4 15.2-16h-31.2c-4-4.8-8-10.4-11.2-15.2h53.6c3.2-4.8 6.4-10.4 8.8-16h-71.2c-2.4-4.8-4.8-10.4-6.4-16h83.2c4.8-15.2 8-31.2 8-48 0-11.2-1.6-21.6-3.2-32h-92.8c.8-5.6 2.4-10.4 4-16h83.2c-1.6-5.6-4-11.2-6.4-16H216c2.4-5.6 5.6-10.4 8.8-16h53.6c-3.2-5.6-7.2-11.2-12-16h-29.6c4.8-5.6 9.6-10.4 15.2-15.2-26.4-24.8-62.4-39.2-101.6-39.2 0-1.6 0-1.6-.8-1.6z" fill="#ff5050"/><path d="M0 252c0 83.2 67.2 151.2 151.2 151.2 39.2 0 74.4-15.2 101.6-39.2 5.6-4.8 10.4-10.4 15.2-16h-31.2c-4-4.8-8-10.4-11.2-15.2h53.6c3.2-4.8 6.4-10.4 8.8-16h-71.2c-2.4-4.8-4.8-10.4-6.4-16h83.2c4.8-15.2 8-31.2 8-48 0-11.2-1.6-21.6-3.2-32h-92.8c.8-5.6 2.4-10.4 4-16h83.2c-1.6-5.6-4-11.2-6.4-16H216c2.4-5.6 5.6-10.4 8.8-16h53.6c-3.2-5.6-7.2-11.2-12-16h-29.6c4.8-5.6 9.6-10.4 15.2-15.2-26.4-24.8-62.4-39.2-101.6-39.2h-.8" fill="#e52836"/><path d="M151.2 403.2c39.2 0 74.4-15.2 101.6-39.2 5.6-4.8 10.4-10.4 15.2-16h-31.2c-4-4.8-8-10.4-11.2-15.2h53.6c3.2-4.8 6.4-10.4 8.8-16h-71.2c-2.4-4.8-4.8-10.4-6.4-16h83.2c4.8-15.2 8-31.2 8-48 0-11.2-1.6-21.6-3.2-32h-92.8c.8-5.6 2.4-10.4 4-16h83.2c-1.6-5.6-4-11.2-6.4-16H216c2.4-5.6 5.6-10.4 8.8-16h53.6c-3.2-5.6-7.2-11.2-12-16h-29.6c4.8-5.6 9.6-10.4 15.2-15.2-26.4-24.8-62.4-39.2-101.6-39.2h-.8" fill="#cb2026"/><g fill="#fff"><path d="M204.8 290.4l2.4-13.6c-.8 0-2.4.8-4 .8-5.6 0-6.4-3.2-5.6-4.8l4.8-28h8.8l2.4-15.2h-8l1.6-9.6h-16s-9.6 52.8-9.6 59.2c0 9.6 5.6 13.6 12.8 13.6 4.8 0 8.8-1.6 10.4-2.4zM210.4 264.8c0 22.4 15.2 28 28 28 12 0 16.8-2.4 16.8-2.4l3.2-15.2s-8.8 4-16.8 4c-17.6 0-14.4-12.8-14.4-12.8H260s2.4-10.4 2.4-14.4c0-10.4-5.6-23.2-23.2-23.2-16.8-1.6-28.8 16-28.8 36zm28-23.2c8.8 0 7.2 10.4 7.2 11.2H228c0-.8 1.6-11.2 10.4-11.2zM340 290.4l3.2-17.6s-8 4-13.6 4c-11.2 0-16-8.8-16-18.4 0-19.2 9.6-29.6 20.8-29.6 8 0 14.4 4.8 14.4 4.8l2.4-16.8s-9.6-4-18.4-4c-18.4 0-36.8 16-36.8 46.4 0 20 9.6 33.6 28.8 33.6 6.4 0 15.2-2.4 15.2-2.4zM116.8 227.2c-11.2 0-19.2 3.2-19.2 3.2L95.2 244s7.2-3.2 17.6-3.2c5.6 0 10.4.8 10.4 5.6 0 3.2-.8 4-.8 4h-7.2c-13.6 0-28.8 5.6-28.8 24 0 14.4 9.6 17.6 15.2 17.6 11.2 0 16-7.2 16.8-7.2l-.8 6.4H132l6.4-44c0-19.2-16-20-21.6-20zm3.2 36c0 2.4-1.6 15.2-11.2 15.2-4.8 0-6.4-4-6.4-6.4 0-4 2.4-9.6 14.4-9.6 2.4.8 3.2.8 3.2.8zM153.6 292c4 0 24 .8 24-20.8 0-20-19.2-16-19.2-24 0-4 3.2-5.6 8.8-5.6 2.4 0 11.2.8 11.2.8l2.4-14.4s-5.6-1.6-15.2-1.6c-12 0-24 4.8-24 20.8 0 18.4 20 16.8 20 24 0 4.8-5.6 5.6-9.6 5.6-7.2 0-14.4-2.4-14.4-2.4l-2.4 14.4c.8 1.6 4.8 3.2 18.4 3.2zM472.8 214.4l-3.2 21.6s-6.4-8-15.2-8c-14.4 0-27.2 17.6-27.2 38.4 0 12.8 6.4 26.4 20 26.4 9.6 0 15.2-6.4 15.2-6.4l-.8 5.6h16l12-76.8-16.8-.8zm-7.2 42.4c0 8.8-4 20-12.8 20-5.6 0-8.8-4.8-8.8-12.8 0-12.8 5.6-20.8 12.8-20.8 5.6 0 8.8 4 8.8 13.6zM29.6 291.2l9.6-57.6 1.6 57.6H52l20.8-57.6-8.8 57.6h16.8l12.8-76.8H67.2l-16 47.2-.8-47.2H27.2l-12.8 76.8h15.2zM277.6 291.2c4.8-26.4 5.6-48 16.8-44 1.6-10.4 4-14.4 5.6-18.4h-3.2c-7.2 0-12.8 9.6-12.8 9.6l1.6-8.8h-15.2L260 292h17.6v-.8zM376.8 227.2c-11.2 0-19.2 3.2-19.2 3.2l-2.4 13.6s7.2-3.2 17.6-3.2c5.6 0 10.4.8 10.4 5.6 0 3.2-.8 4-.8 4h-7.2c-13.6 0-28.8 5.6-28.8 24 0 14.4 9.6 17.6 15.2 17.6 11.2 0 16-7.2 16.8-7.2l-.8 6.4H392l6.4-44c.8-19.2-16-20-21.6-20zm4 36c0 2.4-1.6 15.2-11.2 15.2-4.8 0-6.4-4-6.4-6.4 0-4 2.4-9.6 14.4-9.6 2.4.8 2.4.8 3.2.8zM412 291.2c4.8-26.4 5.6-48 16.8-44 1.6-10.4 4-14.4 5.6-18.4h-3.2c-7.2 0-12.8 9.6-12.8 9.6l1.6-8.8h-15.2L394.4 292H412v-.8z"/></g><g fill="#dce5e5"><path d="M180 279.2c0 9.6 5.6 13.6 12.8 13.6 5.6 0 10.4-1.6 12-2.4l2.4-13.6c-.8 0-2.4.8-4 .8-5.6 0-6.4-3.2-5.6-4.8l4.8-28h8.8l2.4-15.2h-8l1.6-9.6M218.4 264.8c0 22.4 7.2 28 20 28 12 0 16.8-2.4 16.8-2.4l3.2-15.2s-8.8 4-16.8 4c-17.6 0-14.4-12.8-14.4-12.8H260s2.4-10.4 2.4-14.4c0-10.4-5.6-23.2-23.2-23.2-16.8-1.6-20.8 16-20.8 36zm20-23.2c8.8 0 10.4 10.4 10.4 11.2H228c0-.8 1.6-11.2 10.4-11.2zM340 290.4l3.2-17.6s-8 4-13.6 4c-11.2 0-16-8.8-16-18.4 0-19.2 9.6-29.6 20.8-29.6 8 0 14.4 4.8 14.4 4.8l2.4-16.8s-9.6-4-18.4-4c-18.4 0-28.8 16-28.8 46.4 0 20 1.6 33.6 20.8 33.6 6.4 0 15.2-2.4 15.2-2.4zM95.2 244.8s7.2-3.2 17.6-3.2c5.6 0 10.4.8 10.4 5.6 0 3.2-.8 4-.8 4h-7.2c-13.6 0-28.8 5.6-28.8 24 0 14.4 9.6 17.6 15.2 17.6 11.2 0 16-7.2 16.8-7.2l-.8 6.4H132l6.4-44c0-18.4-16-19.2-22.4-19.2m12 34.4c0 2.4-9.6 15.2-19.2 15.2-4.8 0-6.4-4-6.4-6.4 0-4 2.4-9.6 14.4-9.6 2.4.8 11.2.8 11.2.8zM136 290.4s4.8 1.6 18.4 1.6c4 0 24 .8 24-20.8 0-20-19.2-16-19.2-24 0-4 3.2-5.6 8.8-5.6 2.4 0 11.2.8 11.2.8l2.4-14.4s-5.6-1.6-15.2-1.6c-12 0-16 4.8-16 20.8 0 18.4 12 16.8 12 24 0 4.8-5.6 5.6-9.6 5.6M469.6 236s-6.4-8-15.2-8c-14.4 0-19.2 17.6-19.2 38.4 0 12.8-1.6 26.4 12 26.4 9.6 0 15.2-6.4 15.2-6.4l-.8 5.6h16l12-76.8m-20.8 41.6c0 8.8-7.2 20-16 20-5.6 0-8.8-4.8-8.8-12.8 0-12.8 5.6-20.8 12.8-20.8 5.6 0 12 4 12 13.6zM29.6 291.2l9.6-57.6 1.6 57.6H52l20.8-57.6-8.8 57.6h16.8l12.8-76.8h-20l-22.4 47.2-.8-47.2h-8.8l-27.2 76.8h15.2zM260.8 291.2h16.8c4.8-26.4 5.6-48 16.8-44 1.6-10.4 4-14.4 5.6-18.4h-3.2c-7.2 0-12.8 9.6-12.8 9.6l1.6-8.8M355.2 244.8s7.2-3.2 17.6-3.2c5.6 0 10.4.8 10.4 5.6 0 3.2-.8 4-.8 4h-7.2c-13.6 0-28.8 5.6-28.8 24 0 14.4 9.6 17.6 15.2 17.6 11.2 0 16-7.2 16.8-7.2l-.8 6.4H392l6.4-44c0-18.4-16-19.2-22.4-19.2m12 34.4c0 2.4-9.6 15.2-19.2 15.2-4.8 0-6.4-4-6.4-6.4 0-4 2.4-9.6 14.4-9.6 3.2.8 11.2.8 11.2.8zM395.2 291.2H412c4.8-26.4 5.6-48 16.8-44 1.6-10.4 4-14.4 5.6-18.4h-3.2c-7.2 0-12.8 9.6-12.8 9.6l1.6-8.8"/></g></symbol><symbol viewBox="0 0 459 459" id="menuButton" xmlns="http://www.w3.org/2000/svg"><path d="M0 382.5h459v-51H0v51zM0 255h459v-51H0v51zM0 76.5v51h459v-51H0z"/></symbol><symbol viewBox="0 0 504 504" id="paypal" xmlns="http://www.w3.org/2000/svg"><path d="M389.6 221.2h-27.2c-1.6 0-3.2 1.6-4 3.2l-11.2 70.4c0 1.6.8 2.4 2.4 2.4H364c1.6 0 2.4-.8 2.4-2.4l3.2-20c0-1.6 1.6-3.2 4-3.2h8.8c18.4 0 28.8-8.8 31.2-26.4 1.6-7.2 0-13.6-3.2-17.6-4.8-4-12-6.4-20.8-6.4m3.2 26.4c-1.6 9.6-8.8 9.6-16 9.6H372l3.2-18.4c0-.8.8-1.6 2.4-1.6h1.6c4.8 0 9.6 0 12 3.2 1.6.8 1.6 3.2 1.6 7.2" fill="#139ad6"/><g fill="#263b80"><path d="M193.6 221.2h-27.2c-1.6 0-3.2 1.6-4 3.2l-11.2 70.4c0 1.6.8 2.4 2.4 2.4h12.8c1.6 0 3.2-1.6 4-3.2l3.2-19.2c0-1.6 1.6-3.2 4-3.2h8.8c18.4 0 28.8-8.8 31.2-26.4 1.6-7.2 0-13.6-3.2-17.6-4.8-4-11.2-6.4-20.8-6.4m3.2 26.4c-1.6 9.6-8.8 9.6-16 9.6h-4l3.2-18.4c0-.8.8-1.6 2.4-1.6h1.6c4.8 0 9.6 0 12 3.2.8.8 1.6 3.2.8 7.2M276 246.8h-12.8c-.8 0-2.4.8-2.4 1.6l-.8 4-.8-1.6c-3.2-4-8.8-5.6-15.2-5.6-14.4 0-27.2 11.2-29.6 26.4-1.6 8 .8 15.2 4.8 20s9.6 6.4 16.8 6.4c12 0 18.4-7.2 18.4-7.2l-.8 4c0 1.6.8 2.4 2.4 2.4h12c1.6 0 3.2-1.6 4-3.2l7.2-44.8c-.8-.8-2.4-2.4-3.2-2.4m-18.4 25.6c-1.6 7.2-7.2 12.8-15.2 12.8-4 0-7.2-1.6-8.8-3.2-1.6-2.4-2.4-5.6-2.4-9.6.8-7.2 7.2-12.8 14.4-12.8 4 0 6.4 1.6 8.8 3.2 2.4 2.4 3.2 6.4 3.2 9.6"/></g><path d="M471.2 246.8h-12.8c-.8 0-2.4.8-2.4 1.6l-.8 4-.8-1.6c-3.2-4-8.8-5.6-15.2-5.6-14.4 0-27.2 11.2-29.6 26.4-1.6 8 .8 15.2 4.8 20s9.6 6.4 16.8 6.4c12 0 18.4-7.2 18.4-7.2l-.8 4c0 1.6.8 2.4 2.4 2.4h12c1.6 0 3.2-1.6 4-3.2l7.2-44.8c-.8-.8-1.6-2.4-3.2-2.4m-18.4 25.6c-1.6 7.2-7.2 12.8-15.2 12.8-4 0-7.2-1.6-8.8-3.2-1.6-2.4-2.4-5.6-2.4-9.6.8-7.2 7.2-12.8 14.4-12.8 4 0 6.4 1.6 8.8 3.2 3.2 2.4 4 6.4 3.2 9.6" fill="#139ad6"/><path d="M345.6 246.8H332c-1.6 0-2.4.8-3.2 1.6l-17.6 27.2-8-25.6c-.8-1.6-1.6-2.4-4-2.4h-12.8c-1.6 0-2.4 1.6-2.4 3.2l14.4 42.4-13.6 19.2c-.8 1.6 0 4 1.6 4h12.8c1.6 0 2.4-.8 3.2-1.6l44-63.2c2.4-2.4.8-4.8-.8-4.8" fill="#263b80"/><path d="M486.4 223.6l-11.2 72c0 1.6.8 2.4 2.4 2.4h11.2c1.6 0 3.2-1.6 4-3.2l11.2-70.4c0-1.6-.8-2.4-2.4-2.4h-12.8c-.8-.8-1.6 0-2.4 1.6" fill="#139ad6"/><path d="M92 197.2c-5.6-6.4-16-9.6-30.4-9.6h-40c-2.4 0-4.8 2.4-5.6 4.8L0 297.2c0 2.4 1.6 4 3.2 4H28l6.4-39.2v1.6c.8-2.4 3.2-4.8 5.6-4.8h12c23.2 0 40.8-9.6 46.4-36v-2.4c-.8 0-.8 0 0 0 .8-10.4-.8-16.8-6.4-23.2" fill="#263b80"/><path d="M97.6 220.4v2.4c-5.6 27.2-23.2 36-46.4 36h-12c-2.4 0-4.8 2.4-5.6 4.8l-8 48.8c0 1.6.8 3.2 3.2 3.2h20.8c2.4 0 4.8-1.6 4.8-4v-.8l4-24.8v-1.6c0-2.4 2.4-4 4.8-4h3.2c20 0 36-8 40-32 1.6-9.6.8-18.4-4-24-.8-1.6-2.4-3.2-4.8-4" fill="#139ad6"/><path d="M92 218c-.8 0-1.6-.8-2.4-.8s-1.6 0-2.4-.8c-3.2-.8-6.4-.8-10.4-.8H45.6c-.8 0-1.6 0-2.4.8-1.6.8-2.4 2.4-2.4 4L34.4 262v1.6c.8-2.4 3.2-4.8 5.6-4.8h12c23.2 0 40.8-9.6 46.4-36 0-.8 0-1.6.8-2.4-1.6-.8-2.4-1.6-4-1.6-2.4-.8-2.4-.8-3.2-.8" fill="#232c65"/></symbol><symbol viewBox="0 0 447.727 447.727" id="soundcloud" xmlns="http://www.w3.org/2000/svg"><linearGradient id="fa" gradientUnits="userSpaceOnUse" x1="340.348" y1="311.841" x2="340.348" y2="132.571" gradientTransform="matrix(1 0 0 -1 0 450)"><stop offset="0" stop-color="#de9329"/><stop offset="1" stop-color="#d64c1b"/></linearGradient><path d="M447.601 263.733c-1.785-25.984-23.127-46.862-49.142-48.123-9.942-.482-19.306 1.84-27.373 6.24-1.075-51.745-43.328-93.368-95.33-93.368-13.755 0-26.82 2.923-38.627 8.168-2.541 1.129-4.16 3.673-4.16 6.454v169.067a7.073 7.073 0 007.073 7.073h155.837c29.846-.001 53.802-25.22 51.722-55.511z" fill="url(#fa)"/><linearGradient id="fb" gradientUnits="userSpaceOnUse" x1="219.183" y1="311.841" x2="219.183" y2="132.571" gradientTransform="matrix(1 0 0 -1 0 450)"><stop offset="0" stop-color="#de9329"/><stop offset="1" stop-color="#d64c1b"/></linearGradient><path d="M219.182 139.431a7.12 7.12 0 00-7.12 7.12v165.387a7.121 7.121 0 0014.241 0V146.551a7.121 7.121 0 00-7.121-7.12z" fill="url(#fb)"/><linearGradient id="fc" gradientUnits="userSpaceOnUse" x1="195.62" y1="311.841" x2="195.62" y2="132.571" gradientTransform="matrix(1 0 0 -1 0 450)"><stop offset="0" stop-color="#de9329"/><stop offset="1" stop-color="#d64c1b"/></linearGradient><path d="M195.62 157.019a7.12 7.12 0 00-7.12 7.12v147.799a7.12 7.12 0 1014.24 0V164.139a7.12 7.12 0 00-7.12-7.12z" fill="url(#fc)"/><linearGradient id="fd" gradientUnits="userSpaceOnUse" x1="172.057" y1="311.841" x2="172.057" y2="132.571" gradientTransform="matrix(1 0 0 -1 0 450)"><stop offset="0" stop-color="#de9329"/><stop offset="1" stop-color="#d64c1b"/></linearGradient><path d="M172.057 165.033a7.12 7.12 0 00-7.12 7.12v139.785a7.12 7.12 0 1014.24 0V172.153a7.118 7.118 0 00-7.12-7.12z" fill="url(#fd)"/><linearGradient id="fe" gradientUnits="userSpaceOnUse" x1="148.495" y1="311.841" x2="148.495" y2="132.571" gradientTransform="matrix(1 0 0 -1 0 450)"><stop offset="0" stop-color="#de9329"/><stop offset="1" stop-color="#d64c1b"/></linearGradient><path d="M148.495 154.348a7.12 7.12 0 00-7.12 7.12v150.47a7.12 7.12 0 1014.24 0v-150.47a7.12 7.12 0 00-7.12-7.12z" fill="url(#fe)"/><linearGradient id="ff" gradientUnits="userSpaceOnUse" x1="124.932" y1="311.841" x2="124.932" y2="132.571" gradientTransform="matrix(1 0 0 -1 0 450)"><stop offset="0" stop-color="#de9329"/><stop offset="1" stop-color="#d64c1b"/></linearGradient><path d="M124.932 161.471a7.12 7.12 0 00-7.12 7.12v143.347a7.12 7.12 0 1014.24 0V168.591a7.12 7.12 0 00-7.12-7.12z" fill="url(#ff)"/><linearGradient id="fg" gradientUnits="userSpaceOnUse" x1="101.37" y1="311.841" x2="101.37" y2="132.571" gradientTransform="matrix(1 0 0 -1 0 450)"><stop offset="0" stop-color="#de9329"/><stop offset="1" stop-color="#d64c1b"/></linearGradient><path d="M101.37 175.718a7.12 7.12 0 00-7.12 7.12v129.1a7.12 7.12 0 1014.24 0v-129.1a7.118 7.118 0 00-7.12-7.12z" fill="url(#fg)"/><linearGradient id="fh" gradientUnits="userSpaceOnUse" x1="77.808" y1="311.841" x2="77.808" y2="132.571" gradientTransform="matrix(1 0 0 -1 0 450)"><stop offset="0" stop-color="#de9329"/><stop offset="1" stop-color="#d64c1b"/></linearGradient><path d="M77.808 203.32a7.12 7.12 0 00-7.12 7.12v101.498a7.12 7.12 0 1014.24 0V210.44a7.12 7.12 0 00-7.12-7.12z" fill="url(#fh)"/><linearGradient id="fi" gradientUnits="userSpaceOnUse" x1="54.245" y1="311.841" x2="54.245" y2="132.571" gradientTransform="matrix(1 0 0 -1 0 450)"><stop offset="0" stop-color="#de9329"/><stop offset="1" stop-color="#d64c1b"/></linearGradient><path d="M54.245 214.895a7.12 7.12 0 00-7.12 7.12v89.923a7.12 7.12 0 1014.24 0v-89.923a7.12 7.12 0 00-7.12-7.12z" fill="url(#fi)"/><linearGradient id="fj" gradientUnits="userSpaceOnUse" x1="30.683" y1="311.841" x2="30.683" y2="132.571" gradientTransform="matrix(1 0 0 -1 0 450)"><stop offset="0" stop-color="#de9329"/><stop offset="1" stop-color="#d64c1b"/></linearGradient><path d="M30.683 217.551a7.12 7.12 0 00-7.12 7.12v84.611a7.12 7.12 0 1014.24 0v-84.611a7.12 7.12 0 00-7.12-7.12z" fill="url(#fj)"/><linearGradient id="fk" gradientUnits="userSpaceOnUse" x1="7.12" y1="311.841" x2="7.12" y2="132.571" gradientTransform="matrix(1 0 0 -1 0 450)"><stop offset="0" stop-color="#de9329"/><stop offset="1" stop-color="#d64c1b"/></linearGradient><path d="M7.12 236.143a7.12 7.12 0 00-7.12 7.12v48.756a7.12 7.12 0 1014.24 0v-48.756a7.12 7.12 0 00-7.12-7.12z" fill="url(#fk)"/></symbol><symbol viewBox="0 0 434.016 434.016" id="vimeo" xmlns="http://www.w3.org/2000/svg"><path d="M416.049 52.27c-10.508-11.324-25.72-17.356-45.207-17.928-55.02-1.774-93.932 27.496-115.651 86.986a8.833 8.833 0 001.814 9.041 8.78 8.78 0 008.812 2.534c6.246-1.718 12.44-2.588 18.412-2.588 8.018 0 18.689 1.474 24.001 8.497 4.077 5.39 4.632 13.472 1.649 24.02-2.518 8.899-15.476 32.721-31.515 57.929-19.539 30.712-30.333 44.48-33.445 44.48-10.31 0-47.565-165.194-48.589-168.817-10.686-37.86-16.05-56.864-50.798-56.864-26.483 0-85.551 48.362-134.051 90.495-2.983 2.591-5.495 4.774-7.44 6.436a11.525 11.525 0 00-1.607 15.849l9.038 11.644a11.517 11.517 0 0015.812 2.331l.497-.354c15.691-11.163 30.514-21.706 41.704-22.284 12.16-.597 22.711 18.4 35.29 63.605 23.957 87.803 60.355 192.468 97.709 192.468 39.036 0 85.605-33.091 145.802-111.429 54.482-70.902 83.655-127.135 85.529-168.048 1.407-30.901-4.57-53.78-17.766-68.003z" fill="#69b4e5"/></symbol><symbol viewBox="0 0 504 504" id="visa" xmlns="http://www.w3.org/2000/svg"><path fill="#3c58bf" d="M184.8 324.4l25.6-144h40l-24.8 144z"/><path fill="#293688" d="M184.8 324.4l32.8-144h32.8l-24.8 144z"/><path d="M370.4 182c-8-3.2-20.8-6.4-36.8-6.4-40 0-68.8 20-68.8 48.8 0 21.6 20 32.8 36 40s20.8 12 20.8 18.4c0 9.6-12.8 14.4-24 14.4-16 0-24.8-2.4-38.4-8l-5.6-2.4-5.6 32.8c9.6 4 27.2 8 45.6 8 42.4 0 70.4-20 70.4-50.4 0-16.8-10.4-29.6-34.4-40-14.4-7.2-23.2-11.2-23.2-18.4 0-6.4 7.2-12.8 23.2-12.8 13.6 0 23.2 2.4 30.4 5.6l4 1.6 6.4-31.2z" fill="#3c58bf"/><path d="M370.4 182c-8-3.2-20.8-6.4-36.8-6.4-40 0-61.6 20-61.6 48.8 0 21.6 12.8 32.8 28.8 40s20.8 12 20.8 18.4c0 9.6-12.8 14.4-24 14.4-16 0-24.8-2.4-38.4-8l-5.6-2.4-5.6 32.8c9.6 4 27.2 8 45.6 8 42.4 0 70.4-20 70.4-50.4 0-16.8-10.4-29.6-34.4-40-14.4-7.2-23.2-11.2-23.2-18.4 0-6.4 7.2-12.8 23.2-12.8 13.6 0 23.2 2.4 30.4 5.6l4 1.6 6.4-31.2z" fill="#293688"/><path d="M439.2 180.4c-9.6 0-16.8.8-20.8 10.4l-60 133.6h43.2l8-24h51.2l4.8 24H504l-33.6-144h-31.2zm-18.4 96c2.4-7.2 16-42.4 16-42.4s3.2-8.8 5.6-14.4l2.4 13.6s8 36 9.6 44h-33.6v-.8z" fill="#3c58bf"/><path d="M448.8 180.4c-9.6 0-16.8.8-20.8 10.4l-69.6 133.6h43.2l8-24h51.2l4.8 24H504l-33.6-144h-21.6zm-28 96c3.2-8 16-42.4 16-42.4s3.2-8.8 5.6-14.4l2.4 13.6s8 36 9.6 44h-33.6v-.8z" fill="#293688"/><path d="M111.2 281.2l-4-20.8c-7.2-24-30.4-50.4-56-63.2l36 128h43.2l64.8-144H152l-40.8 100z" fill="#3c58bf"/><path d="M111.2 281.2l-4-20.8c-7.2-24-30.4-50.4-56-63.2l36 128h43.2l64.8-144H160l-48.8 100z" fill="#293688"/><path d="M0 180.4l7.2 1.6c51.2 12 86.4 42.4 100 78.4l-14.4-68c-2.4-9.6-9.6-12-18.4-12H0z" fill="#ffbc00"/><path d="M0 180.4c51.2 12 93.6 43.2 107.2 79.2l-13.6-56.8c-2.4-9.6-10.4-15.2-19.2-15.2L0 180.4z" fill="#f7981d"/><path d="M0 180.4c51.2 12 93.6 43.2 107.2 79.2l-9.6-31.2c-2.4-9.6-5.6-19.2-16.8-23.2L0 180.4z" fill="#ed7c00"/><g fill="#051244"><path d="M151.2 276.4L124 249.2l-12.8 30.4-3.2-20c-7.2-24-30.4-50.4-56-63.2l36 128h43.2l20-48zM225.6 324.4l-34.4-35.2-6.4 35.2zM317.6 274.8c3.2 3.2 4.8 5.6 4 8.8 0 9.6-12.8 14.4-24 14.4-16 0-24.8-2.4-38.4-8l-5.6-2.4-5.6 32.8c9.6 4 27.2 8 45.6 8 25.6 0 46.4-7.2 58.4-20l-34.4-33.6zM364 324.4h37.6l8-24h51.2l4.8 24H504L490.4 266l-48-46.4 2.4 12.8s8 36 9.6 44h-33.6c3.2-8 16-42.4 16-42.4s3.2-8.8 5.6-14.4"/></g></symbol></svg>